<?xml version="1.0" standalone="no"?>
<!DOCTYPE svg PUBLIC "-//W3C//DTD SVG 20010904//EN"
 "http://www.w3.org/TR/2001/REC-SVG-20010904/DTD/svg10.dtd">
<svg version="1.0" xmlns="http://www.w3.org/2000/svg"
 width="328.000000pt" height="328.000000pt" viewBox="0 0 328.000000 328.000000"
 preserveAspectRatio="xMidYMid meet">
<metadata>
Created by potrace 1.14, written by Peter Selinger 2001-2017
</metadata>
<g transform="translate(0.000000,328.000000) scale(0.100000,-0.100000)"
fill="#000000" stroke="none">
<path d="M2820 3221 c-8 -6 -18 -7 -24 -4 -5 3 -6 1 -2 -5 4 -7 1 -12 -8 -12
-9 0 -16 -4 -16 -10 0 -5 -6 -10 -14 -10 -7 0 -19 -7 -26 -15 -7 -8 -16 -12
-21 -9 -5 3 -9 1 -9 -5 0 -5 -9 -12 -20 -16 -11 -3 -42 -24 -69 -45 -27 -21
-52 -36 -57 -32 -4 4 -4 1 0 -5 4 -7 2 -13 -3 -13 -6 0 -11 -7 -11 -16 0 -10
-5 -14 -16 -10 -8 3 -13 2 -10 -3 7 -11 -28 -51 -44 -51 -7 0 -11 -3 -7 -6 8
-8 -16 -33 -25 -27 -5 2 -8 -2 -8 -10 0 -8 -11 -23 -25 -33 -14 -10 -33 -30
-42 -44 -10 -15 9 -3 48 30 35 30 66 57 69 60 3 4 39 33 80 65 41 32 84 67 95
77 11 9 54 45 95 79 83 67 96 79 90 79 -3 0 -12 -4 -20 -9z"/>
<path d="M1674 2980 c1 -141 -3 -220 -9 -220 -7 0 -7 -3 0 -8 6 -4 10 -55 10
-117 0 -62 -4 -113 -10 -117 -7 -5 -7 -8 0 -8 11 0 12 -478 1 -505 -3 -9 -2
-14 2 -11 4 2 6 -53 4 -122 -3 -142 -3 -129 -1 -217 1 -36 3 -65 5 -65 2 0 27
9 56 21 29 12 69 27 88 34 l35 12 -1 -91 c0 -103 2 -112 22 -95 8 6 14 9 14 6
0 -3 32 12 71 34 40 21 76 39 80 39 9 0 13 69 9 155 l-1 40 73 34 c40 19 81
39 90 43 15 7 17 -16 17 -303 l0 -311 -35 -14 c-19 -8 -40 -12 -47 -8 -7 4 -9
4 -5 -1 8 -9 -18 -25 -68 -42 l-31 -11 0 125 c-1 68 -3 126 -5 129 -3 2 -22
-3 -44 -12 -21 -9 -41 -15 -43 -14 -2 1 -7 -3 -10 -8 -3 -5 -23 -17 -43 -25
l-38 -16 -2 -113 c0 -62 -1 -121 0 -130 1 -10 -2 -18 -7 -18 -6 0 -22 -5 -38
-12 -15 -6 -30 -12 -33 -13 -3 0 -27 -11 -54 -23 -26 -12 -53 -19 -59 -15 -6
4 -7 1 -3 -6 12 -19 13 -461 1 -461 -7 0 -7 -3 0 -8 13 -9 14 -62 2 -62 -6 0
-6 -5 -1 -12 5 -7 9 -94 9 -193 -1 -99 1 -171 3 -160 2 11 9 23 16 27 7 5 7 8
0 8 -14 0 -5 62 10 72 7 5 8 8 0 8 -9 0 -6 66 4 103 1 4 2 23 2 43 0 25 3 33
13 28 9 -6 9 -4 1 7 -5 8 -9 23 -8 34 9 76 15 121 18 158 3 23 8 71 12 107 4
36 7 75 7 88 1 21 17 27 19 7 1 -6 14 -32 30 -58 16 -27 25 -53 22 -59 -4 -6
-3 -8 3 -5 6 4 18 -11 28 -33 10 -22 21 -40 25 -40 4 0 9 42 10 93 2 138 4
161 14 176 5 8 5 12 0 8 -5 -3 -9 5 -9 18 0 24 0 24 65 -12 36 -19 82 -47 103
-61 23 -15 41 -22 47 -16 5 5 17 45 26 89 9 44 20 84 25 88 4 5 143 -127 308
-292 166 -166 303 -301 306 -301 4 0 -28 74 -84 192 -18 37 -29 73 -25 79 4 7
3 9 -3 6 -12 -8 -65 111 -56 126 3 5 1 7 -4 4 -6 -4 -16 8 -23 26 -6 17 -18
44 -26 58 -7 14 -11 29 -7 33 3 3 2 6 -3 6 -11 0 -39 63 -35 76 2 4 -1 10 -7
13 -9 6 -75 138 -71 143 1 2 -8 22 -20 45 -20 40 -20 43 -4 44 26 2 33 3 83
18 25 7 50 14 55 15 37 8 95 28 95 32 0 3 -24 54 -54 114 -29 60 -51 112 -48
115 11 10 23 5 16 -7 -4 -7 1 -5 12 4 10 9 48 24 84 34 36 10 66 19 68 20 2 1
-4 13 -12 26 -9 14 -13 28 -9 33 5 4 3 5 -3 2 -7 -4 -24 12 -40 36 -16 23 -35
48 -42 55 -7 8 -10 18 -6 23 3 5 0 8 -7 7 -30 -7 -10 34 49 102 35 40 61 75
58 77 -2 3 -35 13 -73 22 -47 13 -67 22 -65 32 3 11 1 12 -9 2 -21 -21 -34
-15 -14 7 10 11 22 17 28 13 6 -4 7 -1 2 6 -4 7 1 22 12 34 47 54 47 56 19 67
-14 5 -26 15 -26 22 0 9 -3 8 -10 -2 -6 -10 -10 -11 -10 -3 0 7 -3 12 -7 11
-13 -2 -63 14 -63 21 0 4 -10 8 -22 8 -13 1 -24 7 -26 13 -2 5 -8 7 -13 4 -6
-3 -21 1 -34 10 l-23 15 69 168 c39 92 74 177 79 188 5 11 24 57 43 103 18 45
37 79 42 75 4 -5 5 -3 1 4 -4 7 2 32 13 55 23 52 91 220 91 226 0 3 -9 -3 -19
-12 -11 -10 -24 -15 -30 -11 -6 3 -9 0 -6 -7 7 -18 -61 -82 -76 -72 -7 4 -9 3
-6 -3 9 -15 -79 -97 -94 -88 -7 5 -10 4 -5 -3 3 -6 -1 -18 -10 -27 -13 -13
-19 -13 -33 -3 -14 11 -14 11 -4 -2 10 -13 3 -25 -43 -68 -30 -29 -59 -50 -65
-47 -5 4 -8 1 -7 -7 2 -7 -3 -12 -10 -10 -8 1 -11 -1 -8 -6 7 -11 -68 -82 -85
-82 -7 0 -9 -3 -6 -6 8 -8 -44 -50 -56 -46 -5 1 -6 -2 -3 -7 6 -9 -21 -38 -28
-30 -8 11 -26 101 -21 110 4 5 1 9 -4 9 -6 0 -11 9 -11 19 0 40 -10 52 -33 39
-12 -7 -26 -11 -32 -9 -5 1 -7 -1 -3 -5 9 -8 -102 -113 -120 -114 -7 0 -11 -4
-8 -9 3 -5 -1 -12 -10 -15 -13 -5 -15 13 -13 147 1 143 0 152 -17 149 -11 -1
-29 -4 -41 -5 -11 -1 -19 -5 -16 -9 7 -13 -12 -9 -26 5 -10 10 -11 8 -5 -7 5
-14 4 -17 -5 -11 -8 4 -11 22 -9 45 2 21 -1 36 -6 33 -5 -3 -6 0 -4 8 3 8 1
24 -3 36 -4 12 -11 47 -14 78 -3 32 -7 60 -9 64 -2 3 -7 29 -10 56 -10 77 -12
84 -17 90 -3 3 -5 -94 -5 -215z"/>
<path d="M1639 3164 c-1 -5 -3 -18 -4 -29 -1 -11 -5 -36 -9 -55 -3 -19 -8 -56
-12 -82 -4 -27 -9 -48 -13 -48 -3 0 -7 -26 -8 -57 -2 -31 -8 -60 -14 -64 -8
-4 -8 -8 -1 -13 6 -4 9 -13 7 -21 -3 -8 -7 -21 -9 -29 -4 -12 -12 -11 -46 5
-71 34 -71 33 -72 -134 0 -82 -3 -147 -7 -145 -5 2 -35 26 -67 55 -113 99
-129 112 -132 108 -4 -4 -6 -13 -17 -72 -4 -24 -11 -41 -14 -38 -4 2 -6 -8 -5
-23 1 -15 -2 -36 -6 -46 -6 -17 -12 -14 -56 28 -27 27 -48 52 -46 57 1 5 -1 8
-5 7 -18 -5 -54 24 -49 38 3 9 1 12 -4 9 -6 -3 -31 14 -57 39 -26 25 -51 46
-56 46 -5 0 -6 7 -3 16 3 8 2 12 -4 9 -5 -3 -30 13 -54 37 -25 24 -80 75 -122
113 -42 39 -90 83 -107 98 -29 27 -50 30 -30 5 5 -7 18 -35 28 -63 9 -27 23
-63 30 -80 8 -16 36 -84 65 -149 28 -66 48 -126 46 -133 -3 -8 -2 -12 2 -9 8
5 19 -16 62 -124 12 -30 28 -69 36 -85 30 -70 33 -82 21 -94 -9 -9 -8 -11 4
-6 11 4 18 0 22 -12 2 -10 8 -25 11 -34 8 -19 -21 -22 -43 -5 -12 9 -13 8 -6
-3 6 -11 4 -13 -9 -8 -11 4 -15 3 -10 -4 4 -7 -3 -10 -17 -8 -13 1 -37 0 -54
-4 -16 -3 -48 -9 -70 -12 -22 -3 -52 -8 -68 -11 l-27 -6 41 -49 c23 -28 37
-53 33 -60 -4 -7 -3 -9 3 -6 10 7 53 -36 53 -53 0 -6 6 -10 13 -11 6 -1 -6 -5
-27 -10 -21 -5 -63 -16 -93 -25 l-54 -16 66 -79 c52 -63 64 -83 56 -97 -17
-32 -73 -97 -82 -95 -4 2 -6 -3 -4 -10 3 -6 -6 -24 -20 -40 -15 -15 -24 -31
-21 -36 4 -6 56 -22 69 -20 1 0 19 -7 39 -16 21 -8 38 -13 38 -10 0 3 9 1 20
-5 16 -9 18 -15 10 -31 -6 -11 -16 -16 -22 -13 -7 4 -8 3 -4 -5 10 -16 -3 -53
-16 -45 -7 4 -8 2 -4 -4 4 -6 -7 -39 -25 -72 -17 -34 -30 -63 -28 -65 2 -2 47
-15 99 -30 52 -14 107 -31 121 -36 l27 -10 -30 -62 c-33 -68 -77 -165 -78
-172 0 -3 -11 -25 -25 -49 -13 -24 -21 -46 -18 -50 4 -3 2 -6 -4 -6 -5 0 -15
-18 -22 -40 -6 -22 -17 -40 -23 -40 -6 0 -8 -3 -5 -7 4 -3 1 -16 -6 -27 -7
-12 -21 -42 -31 -69 -10 -28 -22 -44 -28 -41 -6 4 -8 2 -5 -3 9 -14 -17 -76
-27 -66 -4 4 -4 0 0 -10 3 -10 1 -17 -5 -17 -6 0 -10 -3 -10 -7 3 -19 -2 -34
-9 -29 -4 2 -8 -4 -9 -14 -1 -10 -11 -38 -22 -63 -12 -25 -21 -51 -21 -56 0
-6 111 101 247 237 136 136 252 245 258 244 5 -2 7 0 2 4 -7 7 88 104 102 104
4 0 14 -33 21 -73 7 -39 17 -82 21 -95 l9 -24 68 38 c37 20 76 42 87 48 11 6
28 17 38 25 9 8 18 10 18 5 4 -35 8 -94 10 -192 2 -63 6 -115 10 -118 3 -2 14
14 24 36 10 22 22 37 27 34 5 -3 7 -2 6 3 -4 15 13 53 22 48 5 -3 12 0 16 6 4
8 3 9 -4 5 -14 -8 -15 3 -3 23 5 8 14 10 22 5 12 -6 12 -5 1 8 -10 12 -9 18 3
28 13 11 15 7 16 -26 0 -22 2 -55 5 -74 5 -49 14 -146 19 -205 2 -27 4 -50 5
-50 4 0 13 -75 25 -210 7 -82 17 -160 21 -164 3 -3 5 107 4 245 0 137 0 440 0
674 0 234 0 475 0 535 0 98 -2 111 -17 112 -10 1 -36 9 -58 19 -22 10 -47 19
-55 20 -8 2 -16 7 -18 13 -2 5 -10 7 -18 4 -8 -3 -14 0 -14 6 0 6 -7 8 -17 4
-12 -5 -14 -3 -8 7 6 9 4 12 -6 8 -9 -3 -33 2 -55 13 -21 10 -47 18 -56 19
-10 0 -18 8 -19 18 0 9 -3 12 -5 5 -4 -9 -11 -9 -29 -1 -14 6 -22 15 -19 19 3
5 -1 6 -9 3 -20 -7 -157 47 -150 59 3 6 1 7 -6 3 -6 -4 -19 -5 -29 -2 -14 5
-17 14 -15 39 2 17 4 47 3 64 l-1 33 53 -21 c29 -12 65 -25 79 -29 15 -4 42
-15 60 -23 19 -8 61 -25 94 -36 33 -12 70 -26 83 -31 112 -49 112 -49 112 4 0
44 -1 46 -40 57 -21 7 -38 15 -36 18 2 3 -7 7 -20 7 -13 1 -43 11 -66 22 -24
12 -55 24 -70 27 -16 4 -28 11 -28 16 0 5 -7 5 -17 2 -11 -4 -14 -3 -9 5 4 8
2 10 -7 6 -8 -3 -18 0 -22 5 -3 6 -11 9 -16 6 -5 -4 -9 -1 -9 6 0 7 -3 10 -6
6 -10 -9 -64 14 -57 26 3 6 1 7 -5 3 -6 -4 -23 -4 -37 0 l-26 6 2 102 c1 55 7
107 13 115 8 11 8 13 -1 7 -7 -4 -13 -3 -13 3 0 5 5 13 10 16 6 4 7 12 3 18
-7 11 -12 57 -6 57 4 0 103 -39 143 -57 19 -8 44 -19 55 -23 11 -4 37 -15 58
-25 21 -9 47 -18 58 -20 12 -2 26 -8 33 -13 6 -4 49 -23 96 -41 l85 -34 1 -58
c0 -43 -3 -56 -11 -49 -7 6 -14 8 -17 5 -3 -3 -22 2 -44 12 -21 9 -42 17 -46
17 -3 1 -10 4 -14 9 -4 4 -16 7 -26 7 -10 0 -18 5 -18 12 0 6 -3 9 -6 5 -4 -3
-22 0 -40 8 -36 15 -37 15 -55 15 -5 0 -7 5 -3 12 4 6 3 8 -4 4 -6 -3 -22 -2
-36 4 -25 9 -26 8 -26 -29 l0 -38 103 -38 c56 -21 147 -54 202 -74 l100 -37
-2 211 c-2 263 -3 382 -2 420 1 17 1 71 0 120 0 50 -1 182 -2 295 0 112 -2
206 -5 209 -2 2 -5 0 -5 -5z"/>
<path d="M2536 3108 c5 -8 -12 -18 -40 -22 -8 -1 -19 -6 -23 -11 -4 -4 -1 -5
7 -1 8 4 7 1 -3 -8 -11 -8 -26 -12 -35 -9 -14 4 -14 3 -3 -5 11 -8 8 -13 -15
-25 -16 -8 -28 -18 -26 -21 5 -11 -25 -36 -33 -28 -4 4 -5 2 -4 -3 6 -18 -33
-66 -48 -61 -8 3 -11 1 -8 -5 8 -11 -14 -41 -24 -34 -4 2 -8 -3 -8 -11 0 -11
7 -8 26 9 14 13 69 61 120 108 155 137 152 135 131 135 -10 0 -16 -4 -14 -8z"/>
<path d="M2495 2871 c-3 -5 -2 -12 3 -15 5 -3 9 1 9 9 0 17 -3 19 -12 6z"/>
<path d="M1380 1926 c0 -2 8 -10 18 -17 15 -13 16 -12 3 4 -13 16 -21 21 -21
13z"/>
<path d="M615 1609 c-4 -6 -5 -12 -2 -15 2 -3 7 2 10 11 7 17 1 20 -8 4z"/>
<path d="M2069 1163 c-13 -16 -12 -17 4 -4 16 13 21 21 13 21 -2 0 -10 -8 -17
-17z"/>
<path d="M930 605 c-7 -8 -19 -15 -27 -15 -8 0 -12 -3 -10 -7 6 -10 -19 -34
-27 -26 -3 4 -6 1 -6 -5 0 -17 -52 -62 -64 -55 -6 3 -8 2 -3 -2 9 -11 -23 -46
-35 -39 -4 3 -7 2 -6 -3 4 -12 -34 -53 -44 -47 -4 3 -8 -1 -8 -9 0 -19 -47
-50 -62 -41 -7 5 -8 3 -3 -6 5 -8 -18 -37 -71 -86 -43 -41 -76 -74 -73 -74 6
0 216 157 265 197 23 20 198 233 191 233 -3 0 -10 -7 -17 -15z"/>
<path d="M775 349 c5 -8 -46 -45 -57 -41 -5 1 -8 -5 -8 -13 0 -15 -39 -41 -55
-36 -5 1 -7 -1 -3 -5 10 -9 -54 -64 -67 -57 -5 4 -7 3 -3 -1 4 -5 -14 -28 -40
-53 -45 -42 -42 -41 53 23 55 37 108 76 118 88 87 99 89 103 72 103 -8 0 -12
-4 -10 -8z"/>
<path d="M693 3 c9 -2 25 -2 35 0 9 3 1 5 -18 5 -19 0 -27 -2 -17 -5z"/>
<path d="M2233 3 c9 -2 25 -2 35 0 9 3 1 5 -18 5 -19 0 -27 -2 -17 -5z"/>
</g>
</svg>
